<svg id="Layer_1" data-name="Layer 1" xmlns="http://www.w3.org/2000/svg" viewBox="0 0 122.88 121.83"><defs><style>.cls-1,.cls-2{fill-rule:evenodd;}.cls-2{fill:red;}.cls-3{fill:#fff;}</style></defs><title>js</title><path class="cls-1" d="M102.42,37H81.92a8.52,8.52,0,0,1-8.85-8.7V7.53H21a.58.58,0,0,0-.41.18.45.45,0,0,0-.18.42V113.71a.7.7,0,0,0,.18.41.51.51,0,0,0,.41.18h80.84c.18,0,.17-.09.26-.18s.34-.28.34-.41V37Zm7.47,79.08a5.77,5.77,0,0,1-5.76,5.76H18.66a5.77,5.77,0,0,1-5.76-5.76V5.76a5.7,5.7,0,0,1,1.69-4.07A5.77,5.77,0,0,1,18.66,0H76.9a4.22,4.22,0,0,1,2.46.82l29.75,30.12a2.57,2.57,0,0,1,.78,2.6v82.53ZM80,27.69,79.57,9.63,100.66,31l-18.14-.81A2.4,2.4,0,0,1,80,27.69Z"/><path class="cls-2" d="M6.71,46.28H116.17A6.73,6.73,0,0,1,122.88,53v45.1a6.73,6.73,0,0,1-6.71,6.71H6.71A6.73,6.73,0,0,1,0,98.09V53a6.73,6.73,0,0,1,6.71-6.71Z"/><path class="cls-3" d="M46.92,59.78H56.7V76.9a26.87,26.87,0,0,1-1,8.21,9.42,9.42,0,0,1-3.85,4.77,13,13,0,0,1-7.41,2,17.12,17.12,0,0,1-7.4-1.29A9.32,9.32,0,0,1,33,86.77a14.18,14.18,0,0,1-1.68-6.14l9.29-1.26A10.77,10.77,0,0,0,41,82.45a3.31,3.31,0,0,0,1.17,1.62,2.6,2.6,0,0,0,1.59.41,2.65,2.65,0,0,0,2.41-1.21,8.09,8.09,0,0,0,.76-4.09V59.78Zm16,21.1,9.24-.58a6.89,6.89,0,0,0,1.23,3.41,5.15,5.15,0,0,0,4.3,1.91,4.75,4.75,0,0,0,3.21-1,3,3,0,0,0,1.13-2.27A2.89,2.89,0,0,0,81,80.19c-.71-.65-2.37-1.25-5-1.83-4.28-1-7.31-2.23-9.13-3.83a7.65,7.65,0,0,1-2.76-6.07,8.22,8.22,0,0,1,1.41-4.58,9.25,9.25,0,0,1,4.24-3.4,19.85,19.85,0,0,1,7.75-1.23c4,0,7.09.75,9.21,2.25s3.37,3.88,3.77,7.16l-9.16.54a5,5,0,0,0-1.53-3.12,5,5,0,0,0-3.24-1,4,4,0,0,0-2.56.72,2.23,2.23,0,0,0-.86,1.76,1.79,1.79,0,0,0,.7,1.35,7.78,7.78,0,0,0,3.25,1.16,40.2,40.2,0,0,1,9.14,2.79,9.57,9.57,0,0,1,4,3.49A8.92,8.92,0,0,1,91.54,81a10.09,10.09,0,0,1-1.67,5.59,10.52,10.52,0,0,1-4.69,3.88,18.9,18.9,0,0,1-7.58,1.32q-8,0-11.13-3.1A12.13,12.13,0,0,1,63,80.88Z"/></svg>